<?xml version="1.0" encoding="UTF-8"?>
<svg xmlns="http://www.w3.org/2000/svg" viewBox="0 0 950 340">
  <defs>
    <style>
      .cls-1 {
        fill: #ef483d;
      }

      .cls-2 {
        fill: #1d1d1b;
      }

      .cls-3, .cls-4, .cls-5 {
        stroke-miterlimit: 10;
      }

      .cls-3, .cls-5 {
        fill: #ef372a;
        stroke: #ef372a;
        stroke-width: 16px;
      }

      .cls-4 {
        font-size: 58.09px;
        letter-spacing: .05em;
        stroke: #1d1d1b;
        stroke-width: 3px;
      }

      .cls-4, .cls-5 {
        font-family: Vonique43, 'Vonique 43';
      }

      .cls-5 {
        font-size: 215.41px;
      }
    </style>
  </defs>
  <g id="Horizontal">
    <g id="lamp">
      <path class="cls-1" d="M146.73,21.14l.1-21.14,6.81.03-.1,21.14-6.81-.03Z"/>
      <path class="cls-1" d="M87.33,38.71l-10.53-18.32,5.89-3.4,10.55,18.33-5.9,3.38Z"/>
      <path class="cls-1" d="M44.82,83.7l-18.32-10.55,3.38-5.9,18.32,10.55-3.38,5.9Z"/>
      <path class="cls-1" d="M30.61,142.98l-21.14-.11.03-6.81,21.13.11-.02,6.81Z"/>
      <path class="cls-1" d="M206.05,35.33l10.55-18.32,5.9,3.38-10.55,18.33-5.9-3.4Z"/>
      <path class="cls-1" d="M251.08,77.85l18.32-10.55,3.4,5.9-18.32,10.55-3.4-5.9Z"/>
      <path class="cls-1" d="M268.66,137.2l21.14.06v6.81l-21.14-.08v-6.8Z"/>
      <path class="cls-2" d="M179.23,329.77c-5.01,4-10.75,6.89-16.82,8.57-6.08,1.66-12.48,2.11-18.83,1.21-6.35-.89-12.4-3.08-17.77-6.37-5.36-3.25-10.07-7.63-13.79-12.88l-3.8-5.36,79.81-.03v-3.67h-85.51v-20.84h91.86v-3.7h-99.72v-20.85h4.08c-.49-5.82-1.75-11.65-3.81-17.47-2.46-7.02-6.08-14.07-10.87-21.13l-.43-.65-.11-.8c-2.01-14.81,5.33-19.05,13.85-20.22,3.03-.41,6.16-.35,8.95-.3l25.61.26c5.87.05,9.25-1.23,11.04-3.81,1.99-2.94,2.55-7.83,2.55-14.54v-25.98h-36.47c-5.46,0-9.49-1.18-12.3-3.49-3.03-2.5-4.45-6.08-4.45-10.69l.02-18.59c-.02-2.74-.53-4.52-1.6-5.49-1.16-1.04-3.25-1.48-6.3-1.48h-40.4l.89-4.13c4.07-18.88,13.04-35.95,25.59-49.77,12.54-13.79,28.69-24.35,47.08-30.2l2.06,6.49c-17.22,5.47-32.33,15.37-44.1,28.3-10.83,11.92-18.81,26.42-22.98,42.46h31.85c4.75,0,8.31.99,10.85,3.25,2.62,2.36,3.88,5.79,3.88,10.56l-.03,18.59c.02,2.5.65,4.32,1.98,5.42,1.55,1.28,4.16,1.93,7.96,1.93h36.47v-34.46c0-2.82.38-5.42,1.1-7.72,1.02-3.21,2.73-5.84,5.04-7.67,2.39-1.9,5.36-2.94,8.81-2.94,1.95,0,4.05.34,6.3,1.04l14.04,4.45c1.91.64,3.53.93,4.87.93s2.38-.32,3.06-.86c.72-.54,1.24-1.42,1.6-2.46.41-1.28.61-2.81.61-4.5v-24.44c0-.94-.13-1.77-.32-2.47-.48-1.64-1.52-2.86-2.84-3.65-1.48-.88-3.4-1.31-5.41-1.31-1.44,0-2.87.21-4.24.61l-16.96,4.96c-4.58,1.42-8.2,1.52-10.85.29-3.21-1.47-4.79-4.39-4.75-8.73.13-15.08.19-29.61.19-29.66v-3.37l3.4-.03c19.7-.19,38.77,5.06,55.29,14.73,16.42,9.62,30.33,23.61,39.87,40.99,10.29,18.7,14.55,39.57,12.99,59.99-1.56,20.41-8.95,40.4-21.99,57.33l-1.02,1.34-26.73-.34c-6.05-.08-10.31-1.93-13.1-5.41-2.68-3.33-3.8-7.99-3.75-13.85l.18-17.71c.03-3.46-.27-5.6-1.42-6.59-1.39-1.2-4.34-1.64-9.57-1.64h-27.54v25.98c0,7.98-.83,14.07-3.77,18.36-3.16,4.61-8.3,6.86-16.72,6.8l-25.64-.27c-2.55-.03-5.39-.08-7.98.26-4.83.67-9,3.16-8.07,11.78,4.85,7.29,8.58,14.65,11.18,22.03,2.68,7.63,4.15,15.32,4.37,23.04l.11,3.51h-4.37v7.18h99.71v17.34h-91.82v7.18h85.49v17.33l-72.71.02c2.19,2.15,4.61,4.04,7.21,5.63,4.58,2.79,9.73,4.66,15.16,5.42,5.44.75,10.91.38,16.1-1.04,5.15-1.42,10.05-3.89,14.33-7.31l4.28,5.31ZM152.38,119.92v34.46h27.54c6.94,0,11.22.89,14.01,3.29,3.03,2.62,3.85,6.32,3.8,11.82l-.18,17.71c-.05,4.29.64,7.5,2.25,9.51,1.47,1.87,4.02,2.84,7.85,2.9l23.31.27c11.55-15.54,18.13-33.73,19.56-52.32,1.45-19.13-2.54-38.69-12.16-56.2-8.95-16.29-21.99-29.41-37.37-38.4-14.5-8.5-31.15-13.35-48.41-13.77l-.19,26.28c0,1.4.26,2.23.78,2.49,1.08.49,3.1.29,6.02-.61l17.06-4.99c2.03-.59,4.12-.89,6.14-.89,3.18,0,6.3.75,8.9,2.3,2.74,1.64,4.88,4.15,5.89,7.56.38,1.37.61,2.84.61,4.4v24.44c0,2.33-.29,4.63-.97,6.65-.77,2.28-2.03,4.26-3.88,5.7-1.88,1.45-4.26,2.3-7.24,2.3-1.99,0-4.32-.4-6.97-1.28l-13.99-4.42c-1.55-.49-2.97-.72-4.24-.72-1.85,0-3.38.51-4.56,1.44-1.23.99-2.17,2.49-2.78,4.4-.51,1.61-.77,3.53-.77,5.66Z"/>
    </g>
  </g>
  <g id="Verical">
    <g>
      <text class="cls-4" transform="translate(609.41 299.63) scale(1.02 1)"><tspan x="0" y="0">solutions</tspan></text>
      <text class="cls-5" transform="translate(316.7 228.62)"><tspan x="0" y="0">w</tspan></text>
      <path class="cls-3" d="M664.64,234.51c-14.52,0-27.98-3.65-40.39-10.94-12.13-7.01-21.77-16.55-28.93-28.61v102.92h-11.57v-144.25c0-22.3,7.89-41.37,23.67-57.22,15.85-15.78,34.92-23.67,57.22-23.67s41.34,7.89,57.11,23.67c15.85,15.85,23.77,34.92,23.77,57.22s-7.92,41.34-23.77,57.11c-15.78,15.85-34.82,23.77-57.11,23.77ZM664.64,84.2c-19.14,0-35.48,6.8-49.01,20.41-13.53,13.53-20.3,29.87-20.3,49.01s6.77,35.41,20.3,49.01c13.53,13.53,29.87,20.3,49.01,20.3s35.48-6.77,49.02-20.3c13.53-13.6,20.3-29.94,20.3-49.01s-6.77-35.48-20.3-49.01c-13.53-13.6-29.87-20.41-49.02-20.41Z"/>
      <text class="cls-5" transform="translate(759.6 228.62)"><tspan x="0" y="0">c</tspan></text>
    </g>
  </g>
</svg>